<svg id="Publicdomainvectors.org" xmlns="http://www.w3.org/2000/svg" viewBox="0 0 599.6 384.02"><defs><style>.cls-1{fill:#cae1f6;}.cls-1,.cls-11,.cls-12,.cls-16,.cls-17,.cls-18,.cls-2,.cls-23,.cls-24,.cls-5,.cls-8,.cls-9{fill-rule:evenodd;}.cls-2{fill:#44ad4e;}.cls-3{fill:#ba3a18;}.cls-4,.cls-5{fill:#a83517;}.cls-12,.cls-6{fill:#672a0c;}.cls-7{fill:#492313;}.cls-8{fill:#d44b16;}.cls-9{fill:#bf3b18;}.cls-10{fill:#fbd6c2;}.cls-11{fill:#f1ba9c;}.cls-13{fill:#fcdccc;}.cls-14{fill:#feeee6;}.cls-15,.cls-24{fill:#af3917;}.cls-16,.cls-20{fill:#7bccef;}.cls-17,.cls-21{fill:#98d6f6;}.cls-18,.cls-22{fill:#b4e0f8;}.cls-19,.cls-23{fill:#fdeee5;}</style></defs><title>school</title><path class="cls-1" d="M299.87,85.77c160.6,0,290.8,130.2,290.8,290.8A290.82,290.82,0,0,1,578.19,461H21.55A290.49,290.49,0,0,1,9.07,376.57C9.07,216,139.27,85.77,299.87,85.77Z" transform="translate(-0.07 -85.77)"/><path class="cls-2" d="M299.87,469.79c165.12,0,299.8-3.94,299.8-8.76s-134.68-8.77-299.8-8.77S.07,456.2.07,461,134.75,469.79,299.87,469.79Z" transform="translate(-0.07 -85.77)"/><rect class="cls-3" x="56.56" y="184.14" width="486.47" height="191.11"/><rect class="cls-4" x="56.56" y="225" width="486.47" height="15.52"/><polygon class="cls-5" points="428.21 375.25 449.5 375.25 449.5 248.37 452.32 248.37 452.32 225 449.5 225 443.65 225 428.21 225 428.21 375.25"/><rect class="cls-6" x="40.49" y="146.84" width="518.61" height="78.16"/><rect class="cls-7" x="428.21" y="146.84" width="28.04" height="78.16"/><polygon class="cls-8" points="171.38 119.25 299.8 46.94 428.21 119.25 428.21 375.25 171.38 375.25 171.38 119.25"/><polygon class="cls-9" points="171.38 119.25 299.8 46.94 428.21 119.25 428.21 134.37 299.8 62.06 171.38 134.37 171.38 119.25"/><rect class="cls-10" x="165.2" y="224.49" width="269.2" height="23.88"/><polygon class="cls-11" points="244.84 237.24 359.88 224.49 359.88 242.54 249.95 242.54 244.84 237.24"/><polygon class="cls-12" points="154.41 115.33 299.8 33.46 445.19 115.33 436.76 130.36 299.8 53.24 162.84 130.36 154.41 115.33"/><rect class="cls-10" x="211.76" y="369.41" width="176.07" height="5.84"/><rect class="cls-13" x="225.25" y="363.57" width="149.1" height="5.84"/><rect class="cls-14" x="236.96" y="357.73" width="125.69" height="5.84"/><rect class="cls-15" x="251.96" y="265.86" width="95.69" height="91.87"/><path class="cls-16" d="M258.07,357.67h40.32v79.78H258.07V357.67Zm43.28,0h40.32v79.78H301.35Z" transform="translate(-0.07 -85.77)"/><path class="cls-17" d="M268.11,364.88v65.36H294V364.88Zm43.28,0v65.36h25.9V364.88Z" transform="translate(-0.07 -85.77)"/><path class="cls-17" d="M264.28,357.67H282v79.78H264.28V357.67Zm53.32,0h13.52v79.78H317.6Z" transform="translate(-0.07 -85.77)"/><path class="cls-18" d="M268.11,364.88v65.36H282V364.88Zm63,0v65.36H317.6V364.88Z" transform="translate(-0.07 -85.77)"/><rect class="cls-19" x="363.35" y="265.86" width="48.23" height="65.38"/><rect class="cls-20" x="366.82" y="269.33" width="41.29" height="58.44"/><rect class="cls-21" x="372.57" y="275.08" width="29.79" height="46.93"/><rect class="cls-19" x="364.54" y="281.93" width="45.86" height="1.46"/><rect class="cls-21" x="366.82" y="290.7" width="41.29" height="21.18"/><rect class="cls-22" x="372.57" y="290.7" width="29.79" height="21.18"/><rect class="cls-19" x="386.73" y="267.23" width="1.46" height="62.09"/><rect class="cls-19" x="187.64" y="265.86" width="48.23" height="65.38"/><rect class="cls-20" x="191.11" y="269.33" width="41.29" height="58.44"/><rect class="cls-21" x="196.86" y="275.08" width="29.79" height="46.93"/><rect class="cls-19" x="188.83" y="281.93" width="45.86" height="1.46"/><rect class="cls-21" x="191.11" y="290.7" width="41.29" height="21.18"/><rect class="cls-22" x="196.86" y="290.7" width="29.79" height="21.18"/><rect class="cls-19" x="211.03" y="267.23" width="1.46" height="62.09"/><rect class="cls-19" x="235.87" y="130.45" width="127.47" height="65.38"/><rect class="cls-20" x="239.53" y="134.11" width="120.17" height="58.07"/><rect class="cls-21" x="249.96" y="142.14" width="99.31" height="42"/><path class="cls-17" d="M255.09,219.88h9.67V278h-9.67V219.88Zm79.43,0h9V278h-9V219.88Zm-51.5,0h27.21V278H283Z" transform="translate(-0.07 -85.77)"/><path class="cls-18" d="M255.09,227.91h9.67v42h-9.67v-42Zm27.93,0h27.21v42H283v-42Zm51.5,0h9v42h-9Z" transform="translate(-0.07 -85.77)"/><path class="cls-23" d="M271.1,218.42h1.46v61.26H271.1V218.42Zm55.7,0h1.46v61.26H326.8Z" transform="translate(-0.07 -85.77)"/><rect class="cls-19" x="237.58" y="150.13" width="123.9" height="1.46"/><rect class="cls-19" x="89.76" y="265.86" width="48.23" height="65.38"/><rect class="cls-20" x="93.23" y="269.33" width="41.29" height="58.44"/><rect class="cls-21" x="98.99" y="275.08" width="29.79" height="46.93"/><rect class="cls-19" x="90.95" y="281.93" width="45.86" height="1.46"/><rect class="cls-21" x="93.23" y="290.7" width="41.29" height="21.18"/><rect class="cls-22" x="98.99" y="290.7" width="29.79" height="21.18"/><rect class="cls-19" x="113.15" y="267.23" width="1.46" height="62.09"/><rect class="cls-19" x="460.1" y="265.86" width="48.23" height="65.38"/><rect class="cls-20" x="463.56" y="269.33" width="41.29" height="58.44"/><rect class="cls-21" x="469.32" y="275.08" width="29.79" height="46.93"/><rect class="cls-19" x="461.28" y="281.93" width="45.86" height="1.46"/><rect class="cls-21" x="463.56" y="290.7" width="41.29" height="21.18"/><rect class="cls-22" x="469.32" y="290.7" width="29.79" height="21.18"/><rect class="cls-19" x="483.48" y="267.23" width="1.46" height="62.09"/><path class="cls-23" d="M299.68,200.39A17.44,17.44,0,1,0,282.24,183,17.47,17.47,0,0,0,299.68,200.39Z" transform="translate(-0.07 -85.77)"/><path class="cls-16" d="M299.68,198.36A15.42,15.42,0,1,0,284.26,183,15.44,15.44,0,0,0,299.68,198.36Z" transform="translate(-0.07 -85.77)"/><path class="cls-17" d="M299.68,167.53a15.35,15.35,0,0,1,6.57,1.47v27.89a15.42,15.42,0,0,1-13.14,0V169A15.35,15.35,0,0,1,299.68,167.53Z" transform="translate(-0.07 -85.77)"/><path class="cls-17" d="M299.68,193.55a10.6,10.6,0,1,0-10.6-10.6A10.62,10.62,0,0,0,299.68,193.55Z" transform="translate(-0.07 -85.77)"/><path class="cls-18" d="M299.68,172.35a10.53,10.53,0,0,1,6.57,2.28v16.63a10.57,10.57,0,0,1-13.14,0V174.63A10.53,10.53,0,0,1,299.68,172.35Z" transform="translate(-0.07 -85.77)"/><rect class="cls-19" x="244.83" y="208.02" width="109.93" height="29.22"/><path class="cls-24" d="M263.19,316.62c3.77,0,5.95-2.27,5.95-4.88a4.34,4.34,0,0,0-3.12-4.28l-2-.82c-1.35-.56-2.39-.9-2.39-1.86s.77-1.43,2-1.43a5.11,5.11,0,0,1,3.26,1.26l1.81-2.25a7.3,7.3,0,0,0-5.07-2.08c-3.29,0-5.61,2.08-5.61,4.69a4.59,4.59,0,0,0,3.16,4.3l2.06.87c1.38.58,2.27.9,2.27,1.89s-.72,1.52-2.2,1.52a6.44,6.44,0,0,1-3.89-1.64l-2,2.44a8.62,8.62,0,0,0,5.82,2.27Zm15.21,0a6.47,6.47,0,0,0,5.09-2.32l-1.88-2.22a4.2,4.2,0,0,1-3.07,1.47c-2.32,0-3.82-1.88-3.82-5.12s1.72-5.08,3.87-5.08a4,4,0,0,1,2.78,1.26l1.88-2.27a6.63,6.63,0,0,0-4.73-2.06c-4,0-7.45,3.05-7.45,8.27s3.34,8.07,7.33,8.07Zm7.49-.29h3.55v-6.57h5.44v6.57h3.58V300.57h-3.58v6.07h-5.44v-6.07h-3.55v15.76Zm22.69.29c4.25,0,7.15-3.09,7.15-8.24s-2.9-8.1-7.15-8.1-7.15,3-7.15,8.1,2.9,8.24,7.15,8.24Zm0-3.07c-2.15,0-3.5-2-3.5-5.17s1.35-5,3.5-5,3.5,1.89,3.5,5-1.35,5.17-3.5,5.17Zm16.53,3.07c4.25,0,7.15-3.09,7.15-8.24s-2.9-8.1-7.15-8.1-7.15,3-7.15,8.1,2.9,8.24,7.15,8.24Zm0-3.07c-2.15,0-3.5-2-3.5-5.17s1.35-5,3.5-5,3.5,1.89,3.5,5-1.35,5.17-3.5,5.17Zm10.13,2.78H345v-3h-6.23V300.57h-3.55Z" transform="translate(-0.07 -85.77)"/></svg>